<svg xmlns="http://www.w3.org/2000/svg" width="64" height="64" viewBox="0 0 24 24">
  <!-- Solid Blue Circle Background -->
  <circle cx="12" cy="12" r="12" fill="#2196F3"/>
  <!-- Solid White Zoom-in Icon -->
  <path fill="#ffffff" d="M15.5,14h-0.79l-0.28-0.27C15.41,12.59,16,11.11,16,9.5 C16,5.91,13.09,3,9.5,3S3,5.91,3,9.5S5.91,16,9.5,16c1.61,0,3.09-0.59,4.23-1.57l0.27,0.28v0.79l5,4.99L20.49,19L15.5,14z M9.5,14 C7.01,14,5,11.99,5,9.5S7.01,5,9.5,5S14,7.01,14,9.5S11.99,14,9.5,14z M12,10h-2v2H9v-2H7V9h2V7h1v2h2V10z"/>
</svg>